<svg width="140" height="140" viewBox="0 0 140 140" fill="none" xmlns="http://www.w3.org/2000/svg">
<rect width="140" height="140" rx="70" fill="#2872FA"/>
<path d="M39 64.2727V49.718C39 42.694 44.694 37 51.7179 37V37C58.7419 37 64.4359 42.694 64.4359 49.718V58.7086C64.4359 61.7816 66.927 64.2727 70 64.2727V64.2727C73.073 64.2727 75.5641 61.7816 75.5641 58.7086V49.718C75.5641 42.694 81.2581 37 88.2821 37V37C95.306 37 101 42.694 101 49.718V51.876" stroke="white" stroke-width="5.625" stroke-linecap="round"/>
<path d="M39 90.2463V90.9168C39 97.9407 44.694 103.635 51.7179 103.635V103.635C58.7419 103.635 64.4359 97.9407 64.4359 90.9168V81.9261C64.4359 78.8532 66.927 76.362 70 76.362V76.362C73.073 76.362 75.5641 78.8532 75.5641 81.9261V90.9168C75.5641 97.9407 81.2581 103.635 88.2821 103.635V103.635C95.306 103.635 101 97.9407 101 90.9168V76.362" stroke="white" stroke-width="5.625" stroke-linecap="round"/>
</svg>
