<svg width="267" height="140" viewBox="0 0 267 140" fill="none" xmlns="http://www.w3.org/2000/svg">
<circle opacity="0.1" cx="70" cy="70" r="70" fill="#2872FA"/>
<path d="M156.327 36.5647C156.327 38.5335 154.731 40.1295 152.762 40.1295C150.794 40.1295 149.198 38.5335 149.198 36.5647C149.198 34.596 150.794 33 152.762 33C154.731 33 156.327 34.596 156.327 36.5647Z" fill="#2872FA"/>
<path d="M152.763 43.7967C154.281 43.7967 155.512 45.0276 155.512 46.5459V65.0826C155.512 66.6009 154.281 67.8318 152.763 67.8318C151.244 67.8318 150.013 66.6009 150.013 65.0826V46.5459C150.013 45.0276 151.244 43.7967 152.763 43.7967Z" fill="#2872FA"/>
<path d="M51.6189 39.3139C46.0295 39.3139 41.4984 43.845 41.4984 49.4343V65.0826C41.4984 66.601 40.2676 67.8318 38.7492 67.8318C37.2309 67.8318 36 66.601 36 65.0826V49.4343C36 40.8083 42.9928 33.8154 51.6189 33.8154C60.2449 33.8154 67.2377 40.8083 67.2377 49.4343V59.4522C67.2377 61.0434 68.5277 62.3334 70.119 62.3334C71.7102 62.3334 73.0002 61.0434 73.0002 59.4522V49.4343C73.0002 40.8083 79.993 33.8154 88.6191 33.8154C97.2451 33.8154 104.238 40.8083 104.238 49.4343V52.1199C104.238 53.6383 103.007 54.8691 101.489 54.8691C99.9704 54.8691 98.7395 53.6383 98.7395 52.1199V49.4343C98.7395 43.845 94.2084 39.3139 88.6191 39.3139C83.0297 39.3139 78.4987 43.845 78.4987 49.4343V59.4522C78.4987 64.0801 74.7469 67.8318 70.119 67.8318C65.491 67.8318 61.7393 64.0801 61.7393 59.4522V49.4343C61.7393 43.845 57.2082 39.3139 51.6189 39.3139Z" fill="#2872FA"/>
<path d="M251.113 39.3139C256.702 39.3139 261.233 43.845 261.233 49.4343V65.0826C261.233 66.601 262.464 67.8318 263.983 67.8318C265.501 67.8318 266.732 66.601 266.732 65.0826V49.4343C266.732 40.8083 259.739 33.8154 251.113 33.8154C242.487 33.8154 235.494 40.8083 235.494 49.4343V59.4522C235.494 61.0434 234.204 62.3334 232.613 62.3334C231.022 62.3334 229.732 61.0434 229.732 59.4522V49.4343C229.732 40.8083 222.739 33.8154 214.113 33.8154C205.487 33.8154 198.494 40.8083 198.494 49.4343V52.1199C198.494 53.6383 199.725 54.8691 201.243 54.8691C202.761 54.8691 203.992 53.6383 203.992 52.1199V49.4343C203.992 43.845 208.523 39.3139 214.113 39.3139C219.702 39.3139 224.233 43.845 224.233 49.4343V59.4522C224.233 64.0801 227.985 67.8318 232.613 67.8318C237.241 67.8318 240.993 64.0801 240.993 59.4522V49.4343C240.993 43.845 245.524 39.3139 251.113 39.3139Z" fill="#2872FA"/>
<path d="M41.4984 90.3945C41.4984 95.9838 46.0295 100.515 51.6189 100.515C57.2082 100.515 61.7393 95.9838 61.7393 90.3945V80.3766C61.7393 75.7487 65.491 71.9969 70.119 71.9969C74.7469 71.9969 78.4987 75.7486 78.4987 80.3766V90.3945C78.4987 95.9838 83.0297 100.515 88.6191 100.515C94.2084 100.515 98.7395 95.9838 98.7395 90.3945V74.7462C98.7395 73.2278 99.9704 71.9969 101.489 71.9969C103.007 71.9969 104.238 73.2278 104.238 74.7462V90.3945C104.238 99.0205 97.2452 106.013 88.6191 106.013C79.993 106.013 73.0002 99.0205 73.0002 90.3945V80.3766C73.0002 78.7854 71.7102 77.4954 70.119 77.4954C68.5277 77.4954 67.2377 78.7854 67.2377 80.3766V90.3945C67.2377 99.0205 60.2449 106.013 51.6189 106.013C42.9928 106.013 36 99.0205 36 90.3945V89.2644C36 87.746 37.2309 86.5152 38.7492 86.5152C40.2676 86.5152 41.4984 87.746 41.4984 89.2644V90.3945Z" fill="#2872FA"/>
<path fill-rule="evenodd" clip-rule="evenodd" d="M138.606 63.346C135.578 66.1312 131.536 67.8318 127.097 67.8318C117.703 67.8318 110.088 60.217 110.088 50.8236C110.088 41.4303 117.703 33.8154 127.097 33.8154C136.49 33.8154 144.105 41.4303 144.105 50.8236L144.105 50.8717V65.0827C144.105 66.6011 142.874 67.8319 141.356 67.8319C139.837 67.8319 138.606 66.6011 138.606 65.0827V63.346ZM115.587 50.8236C115.587 44.467 120.74 39.3139 127.097 39.3139C133.448 39.3139 138.597 44.4576 138.606 50.8064L138.606 50.8237V50.8632C138.585 57.2017 133.44 62.3334 127.097 62.3334C120.74 62.3334 115.587 57.1803 115.587 50.8236Z" fill="#2872FA"/>
<path fill-rule="evenodd" clip-rule="evenodd" d="M162.256 105.709C152.862 105.709 145.247 98.0941 145.247 88.7007V74.4419C145.247 72.9235 146.478 71.6926 147.997 71.6926C149.515 71.6926 150.746 72.9235 150.746 74.4419V76.1784C153.775 73.3931 157.816 71.6925 162.256 71.6925C171.649 71.6925 179.264 79.3073 179.264 88.7007C179.264 98.0941 171.649 105.709 162.256 105.709ZM162.256 77.1909C155.899 77.1909 150.746 82.344 150.746 88.7007C150.746 95.0574 155.899 100.21 162.256 100.21C168.612 100.21 173.765 95.0574 173.765 88.7007C173.765 82.344 168.612 77.1909 162.256 77.1909Z" fill="#2872FA"/>
<path d="M166.919 36.5647C166.919 35.0463 165.688 33.8154 164.17 33.8154C162.651 33.8154 161.421 35.0463 161.421 36.5647V65.0826C161.421 66.601 162.651 67.8318 164.17 67.8318C165.688 67.8318 166.919 66.601 166.919 65.0826V50.8236C166.919 44.467 172.072 39.3139 178.429 39.3139C179.947 39.3139 181.178 38.083 181.178 36.5647C181.178 35.0463 179.947 33.8154 178.429 33.8154C173.99 33.8154 169.948 35.5161 166.919 38.3014V36.5647Z" fill="#2872FA"/>
<path d="M189.27 40.1295C191.239 40.1295 192.835 38.5335 192.835 36.5647C192.835 34.596 191.239 33 189.27 33C187.302 33 185.706 34.596 185.706 36.5647C185.706 38.5335 187.302 40.1295 189.27 40.1295Z" fill="#2872FA"/>
<path d="M192.02 46.5459C192.02 45.0276 190.789 43.7967 189.271 43.7967C187.752 43.7967 186.521 45.0276 186.521 46.5459V65.0826C186.521 66.6009 187.752 67.8318 189.271 67.8318C190.789 67.8318 192.02 66.6009 192.02 65.0826V46.5459Z" fill="#2872FA"/>
<path d="M130.381 78.0301C128.048 77.0865 125.469 76.9341 123.04 77.5962C120.611 78.2583 118.467 79.6984 116.934 81.6959C115.402 83.6934 114.567 86.1381 114.558 88.6555C114.548 91.1728 115.363 93.624 116.88 95.6335C118.396 97.643 120.529 99.0999 122.953 99.7811C125.376 100.462 127.956 100.33 130.297 99.4049C132.639 98.4797 134.612 96.8124 135.915 94.6585C136.701 93.3594 138.391 92.9434 139.69 93.7294C140.989 94.5153 141.405 96.2056 140.619 97.5047C138.694 100.688 135.778 103.151 132.318 104.519C128.859 105.886 125.046 106.081 121.465 105.074C117.884 104.068 114.731 101.915 112.491 98.9454C110.25 95.976 109.045 92.3538 109.059 88.6339C109.074 84.9139 110.308 81.3013 112.572 78.3496C114.836 75.3979 118.005 73.2698 121.594 72.2913C125.183 71.3129 128.994 71.5381 132.442 72.9325C135.891 74.3268 138.788 76.8134 140.688 80.0113C141.141 80.7736 141.183 81.6661 140.88 82.4313C140.678 83.0462 140.258 83.5926 139.656 83.9449L127.454 91.0744C126.143 91.8404 124.459 91.3986 123.693 90.0876C122.927 88.7767 123.369 87.0929 124.68 86.3269L134.33 80.6883C133.22 79.5437 131.878 78.635 130.381 78.0301Z" fill="#2872FA"/>
</svg>
